<svg width="14" height="14" viewBox="0 0 14 14" fill="none" xmlns="http://www.w3.org/2000/svg">
<rect width="14" height="14" fill="black" fill-opacity="0"/>
<path fill-rule="evenodd" clip-rule="evenodd" d="M7.70492 3.4834V6.30969H10.4918V7.68997H7.70492V10.5163H6.29508V7.68997H3.5082V6.30969H6.29508V3.4834H7.70492ZM6.98361 0C8.90711 0 10.5574 0.684657 11.9344 2.05399C13.3115 3.42332 14 5.07198 14 7C14 8.92802 13.3115 10.5767 11.9344 11.946C10.5574 13.3153 8.90711 14 6.98361 14C5.0601 14 3.41531 13.3153 2.04918 11.946C0.683053 10.5767 0 8.92802 0 7C0 5.07198 0.683053 3.42332 2.04918 2.05399C3.41531 0.684657 5.0601 0 6.98361 0ZM7 12.6193C8.54099 12.6193 9.85792 12.0716 10.9508 10.9761C12.0437 9.88066 12.5902 8.55516 12.5902 6.9996C12.5902 5.44404 12.0437 4.11854 10.9508 3.02308C9.85792 1.92761 8.54099 1.37988 7 1.37988C5.45901 1.37988 4.14208 1.92761 3.04918 3.02308C1.95628 4.11854 1.40984 5.44404 1.40984 6.9996C1.40984 8.55516 1.95628 9.88066 3.04918 10.9761C4.14208 12.0716 5.45901 12.6193 7 12.6193Z" fill="#C6CBD4"/>
<mask id="mask0" mask-type="alpha" maskUnits="userSpaceOnUse" x="0" y="0" width="14" height="14">
<path fill-rule="evenodd" clip-rule="evenodd" d="M7.70492 3.4834V6.30969H10.4918V7.68997H7.70492V10.5163H6.29508V7.68997H3.5082V6.30969H6.29508V3.4834H7.70492ZM6.98361 0C8.90711 0 10.5574 0.684657 11.9344 2.05399C13.3115 3.42332 14 5.07198 14 7C14 8.92802 13.3115 10.5767 11.9344 11.946C10.5574 13.3153 8.90711 14 6.98361 14C5.0601 14 3.41531 13.3153 2.04918 11.946C0.683053 10.5767 0 8.92802 0 7C0 5.07198 0.683053 3.42332 2.04918 2.05399C3.41531 0.684657 5.0601 0 6.98361 0ZM7 12.6193C8.54099 12.6193 9.85792 12.0716 10.9508 10.9761C12.0437 9.88066 12.5902 8.55516 12.5902 6.9996C12.5902 5.44404 12.0437 4.11854 10.9508 3.02308C9.85792 1.92761 8.54099 1.37988 7 1.37988C5.45901 1.37988 4.14208 1.92761 3.04918 3.02308C1.95628 4.11854 1.40984 5.44404 1.40984 6.9996C1.40984 8.55516 1.95628 9.88066 3.04918 10.9761C4.14208 12.0716 5.45901 12.6193 7 12.6193Z" fill="white"/>
</mask>
<g mask="url(#mask0)">
<rect width="72" height="72" fill="black" fill-opacity="0" transform="translate(-29 -29)"/>
<path fill-rule="evenodd" clip-rule="evenodd" d="M-29 -29H43V43H-29V-29Z" fill="#C6CBD4"/>
</g>
</svg>
