<svg xmlns="http://www.w3.org/2000/svg" xmlns:xlink="http://www.w3.org/1999/xlink" version="1.1" id="Layer_1" x="0px" y="0px" viewBox="0 0 522.2 522.2" style="enable-background:new 0 0 522.2 522.2;" xml:space="preserve">
<style type="text/css">
	.st0{fill:#FFFFFF;}
	.st1{fill:#DE2179;}
	.st2{fill:#42BA9B;}
</style>
<g>
	<polygon class="st0" points="0.2,364.5 57.1,364.5 57.1,328.8 129.7,328.8 129.7,364.5 186.6,364.5 186.6,90 0.2,90  "/>
	<path class="st0" d="M286.2,13.5L286.2,13.5c-8.6,0-15.6,7-15.6,15.6v0c0,8.6,7,15.6,15.6,15.6h0c8.6,0,15.6-7,15.6-15.6v0   C301.8,20.5,294.8,13.5,286.2,13.5z"/>
	<path class="st0" d="M286.2,85.4L286.2,85.4c-8.6,0-15.6,7-15.6,15.6v0c0,8.6,7,15.6,15.6,15.6h0c8.6,0,15.6-7,15.6-15.6v0   C301.8,92.4,294.8,85.4,286.2,85.4z"/>
	<path class="st0" d="M286.2,157.3L286.2,157.3c-8.6,0-15.6,7-15.6,15.6s7,15.6,15.6,15.6h0c8.6,0,15.6-7,15.6-15.6   S294.8,157.3,286.2,157.3z"/>
	<path class="st0" d="M359.5,13.5L359.5,13.5c-8.6,0-15.6,7-15.6,15.6v0c0,8.6,7,15.6,15.6,15.6h0c8.6,0,15.6-7,15.6-15.6v0   C375.1,20.5,368.1,13.5,359.5,13.5z"/>
	<path class="st0" d="M359.5,85.4L359.5,85.4c-8.6,0-15.6,7-15.6,15.6v0c0,8.6,7,15.6,15.6,15.6h0c8.6,0,15.6-7,15.6-15.6v0   C375.1,92.4,368.1,85.4,359.5,85.4z"/>
	<path class="st0" d="M359.5,157.3L359.5,157.3c-8.6,0-15.6,7-15.6,15.6s7,15.6,15.6,15.6h0c8.6,0,15.6-7,15.6-15.6   S368.1,157.3,359.5,157.3z"/>
	<path class="st0" d="M431.5,13.5L431.5,13.5c-8.6,0-15.6,7-15.6,15.6v0c0,8.6,7,15.6,15.6,15.6h0c8.6,0,15.6-7,15.6-15.6v0   C447.2,20.5,440.2,13.5,431.5,13.5z"/>
	<path class="st0" d="M431.5,85.4L431.5,85.4c-8.6,0-15.6,7-15.6,15.6v0c0,8.6,7,15.6,15.6,15.6h0c8.6,0,15.6-7,15.6-15.6v0   C447.2,92.4,440.2,85.4,431.5,85.4z"/>
	<path class="st0" d="M431.5,157.3L431.5,157.3c-8.6,0-15.6,7-15.6,15.6s7,15.6,15.6,15.6h0c8.6,0,15.6-7,15.6-15.6   S440.2,157.3,431.5,157.3z"/>
</g>
<path class="st1" d="M95.5,269C44,267.8,1.2,308.6,0,360.1c-1.2,51.5,39.6,94.3,91.1,95.5c51.5,1.2,94.3-39.6,95.5-91.1  C187.9,313,147.1,270.2,95.5,269z M124.5,395.7H62.1v-62.4h62.4V395.7z"/>
<g>
	
		<ellipse transform="matrix(2.338818e-02 -0.9997 0.9997 2.338818e-02 -2.1551 184.4612)" class="st2" cx="93.3" cy="93.3" rx="93.3" ry="93.3"/>
	<path class="st2" d="M263,251.3v192.3h192.3V251.3H263z M416.2,390.8H302.1V367h114.1V390.8z M416.2,327.8H302.1V304h114.1V327.8z"/>
</g>
</svg>