<svg width="12" height="12" viewBox="0 0 12 12" fill="none" xmlns="http://www.w3.org/2000/svg">
<rect width="12" height="12" fill="black" fill-opacity="0"/>
<path fill-rule="evenodd" clip-rule="evenodd" d="M0 9.5L7.375 2.125L9.875 4.625L2.5 12H0V9.5ZM11.8125 2.6875L10.5938 3.90625L8.09375 1.40625L9.3125 0.1875C9.4375 0.0624994 9.59375 0 9.78125 0C9.96875 0 10.125 0.0624994 10.25 0.1875L11.8125 1.75C11.9375 1.875 12 2.03125 12 2.21875C12 2.40625 11.9375 2.5625 11.8125 2.6875Z" fill="#C6CBD4"/>
<mask id="mask0" mask-type="alpha" maskUnits="userSpaceOnUse" x="0" y="0" width="12" height="12">
<path fill-rule="evenodd" clip-rule="evenodd" d="M0 9.5L7.375 2.125L9.875 4.625L2.5 12H0V9.5ZM11.8125 2.6875L10.5938 3.90625L8.09375 1.40625L9.3125 0.1875C9.4375 0.0624994 9.59375 0 9.78125 0C9.96875 0 10.125 0.0624994 10.25 0.1875L11.8125 1.75C11.9375 1.875 12 2.03125 12 2.21875C12 2.40625 11.9375 2.5625 11.8125 2.6875Z" fill="white"/>
</mask>
<g mask="url(#mask0)">
<rect width="72" height="72" fill="black" fill-opacity="0" transform="translate(-30 -30)"/>
<path fill-rule="evenodd" clip-rule="evenodd" d="M-30 -30H42V42H-30V-30Z" fill="#C6CBD4"/>
</g>
</svg>
