<?xml version="1.0" encoding="UTF-8" standalone="no"?>
<!-- Generator: Adobe Illustrator 24.1.3, SVG Export Plug-In . SVG Version: 6.00 Build 0)  -->

<svg
   version="1.1"
   id="Layer_1"
   x="0px"
   y="0px"
   viewBox="0 100 2576.65 745.28"
   style="enable-background:new 0 0 2576.65 595.28;"
   xml:space="preserve"
   sodipodi:docname="hoxton-idi-dark.svg"
   inkscape:version="1.2.2 (732a01da63, 2022-12-09)"
   xmlns:inkscape="http://www.inkscape.org/namespaces/inkscape"
   xmlns:sodipodi="http://sodipodi.sourceforge.net/DTD/sodipodi-0.dtd"
   xmlns:xlink="http://www.w3.org/1999/xlink"
   xmlns="http://www.w3.org/2000/svg"
   xmlns:svg="http://www.w3.org/2000/svg"><defs
   id="defs27" /><sodipodi:namedview
   id="namedview25"
   pagecolor="#ffffff"
   bordercolor="#000000"
   borderopacity="0.25"
   inkscape:showpageshadow="2"
   inkscape:pageopacity="0.0"
   inkscape:pagecheckerboard="0"
   inkscape:deskcolor="#d1d1d1"
   showgrid="false"
   inkscape:zoom="0.46960202"
   inkscape:cx="869.88552"
   inkscape:cy="372.65598"
   inkscape:window-width="5120"
   inkscape:window-height="1369"
   inkscape:window-x="-8"
   inkscape:window-y="-8"
   inkscape:window-maximized="1"
   inkscape:current-layer="Layer_1" />
<style
   type="text/css"
   id="style2">
	.st0{clip-path:url(#SVGID_3_);}
	.st1{clip-path:url(#SVGID_4_);fill:#BE0834;}
	.st2{fill:#BE0834;}
	.st3{font-family:'NHaasGroteskTXPro-55Rg';}
	.st4{font-size:240px;}
</style>
<g
   id="g20">
	<g
   id="g18">
		<defs
   id="defs5">
			<rect
   id="SVGID_1_"
   x="-186.62"
   y="-117.72"
   width="2944"
   height="880" />
		</defs>
		<defs
   id="defs8">
			<path
   id="SVGID_2_"
   d="M167.46,417.88v8.4h-84v-8.4c9.51,0,15.9-1.07,19.17-3.2c3.26-2.13,4.89-8.13,4.89-18v-200.8     c0-9.87-1.77-15.87-5.3-18c-3.53-2.13-11.15-3.2-22.84-3.2v-8.4h64.02v122.8c3.81-7.73,10.67-15.87,20.59-24.4     c9.92-8.53,21.68-12.8,35.27-12.8c18.21,0,31.6,5.73,40.17,17.2c8.56,11.47,12.84,25.2,12.84,41.2v86.4     c0,9.87,1.63,15.87,4.89,18c3.26,2.13,9.79,3.2,19.57,3.2v8.4h-84v-8.4c9.51,0,15.84-1.07,18.96-3.2c3.13-2.13,4.69-8.13,4.69-18     v-79.6c0-14.4-3.06-25.47-9.17-33.2c-6.12-7.73-15.02-11.6-26.71-11.6c-8.43,0-15.9,2.47-22.43,7.4     c-6.52,4.93-11.42,10.73-14.68,17.4v99.6c0,9.87,1.63,15.87,4.89,18C151.55,416.81,157.94,417.88,167.46,417.88L167.46,417.88z      M453.36,341.08c0,26.13-8.7,47.53-26.1,64.2c-17.4,16.67-36.84,25-58.31,25c-21.48,0-40.91-8.33-58.31-25s-26.1-38.07-26.1-64.2     c0-26.4,8.7-47.87,26.1-64.4c17.4-16.53,36.84-24.8,58.31-24.8c21.48,0,40.91,8.27,58.31,24.8     C444.66,293.21,453.36,314.68,453.36,341.08L453.36,341.08z M415.85,341.08c0-26.13-4.35-45.87-13.05-59.2     c-8.7-13.33-19.98-20-33.84-20c-13.86,0-25.15,6.67-33.85,20c-8.7,13.33-13.05,33.07-13.05,59.2c0,25.87,4.35,45.47,13.05,58.8     c8.7,13.33,19.98,20,33.85,20c13.86,0,25.15-6.67,33.84-20C411.5,386.55,415.85,366.95,415.85,341.08L415.85,341.08z      M514.58,417.88v8.4h-66.06v-8.4c9.24,0,16.58-1.53,22.02-4.6c5.44-3.07,11.15-8.6,17.13-16.6l39.96-55.6l-39.55-59.6     c-5.17-8-9.38-12.87-12.64-14.6c-3.26-1.73-9.11-2.6-17.53-2.6v-8.4h81.55v8.4c-5.98,0-10.47,0.33-13.46,1     c-2.99,0.67-4.49,2.33-4.49,5c0,1.07,0.41,2.53,1.22,4.4c0.82,1.87,2.04,4.13,3.67,6.8l25.69,39.2l23.24-35.2     c2.17-3.47,3.87-6.4,5.1-8.8c1.22-2.4,1.84-4.4,1.84-6c0-2.4-1.43-4.07-4.28-5c-2.85-0.93-7.27-1.4-13.25-1.4v-8.4h63.2v8.4     c-9.24,0-16.72,1.53-22.43,4.6c-5.71,3.07-11.28,8.6-16.72,16.6l-30.58,44.4l44.04,66.8c5.17,8.27,10.13,13.87,14.88,16.8     c4.76,2.93,11.49,4.4,20.18,4.4v8.4h-83.19v-8.4c5.71,0,9.99-0.47,12.84-1.4c2.85-0.93,4.28-2.6,4.28-5c0-1.6-0.61-3.6-1.84-6     c-1.22-2.4-2.92-5.33-5.1-8.8l-30.58-46l-31.4,46c-2.17,3.2-3.94,5.93-5.3,8.2c-1.36,2.27-2.04,4.2-2.04,5.8     c0,2.67,1.63,4.53,4.89,5.6C503.16,417.35,508.06,417.88,514.58,417.88L514.58,417.88z M642.27,263.08     c10.87-7.2,21.07-15.4,30.58-24.6c9.51-9.2,17.53-18.33,24.06-27.4h3.26v45.6c6.52,0,16.17-0.13,28.95-0.4     c12.78-0.27,22.16-0.67,28.14-1.2l-2.45,13.2h-54.64v109.6c0,9.87,2.24,18,6.73,24.4c4.49,6.4,11.49,9.6,21,9.6     c6.25,0,11.69-1.4,16.31-4.2c4.62-2.8,9.11-7.13,13.46-13l5.71,4.4c-6.25,9.87-13.73,17.53-22.43,23     c-8.7,5.47-18.89,8.2-30.58,8.2c-12.78,0-23.65-4.2-32.62-12.6c-8.97-8.4-13.46-19.27-13.46-32.6l1.22-116.8h-23.24V263.08     L642.27,263.08z M935.1,341.08c0,26.13-8.7,47.53-26.1,64.2c-17.4,16.67-36.84,25-58.31,25s-40.91-8.33-58.31-25     c-17.4-16.67-26.1-38.07-26.1-64.2c0-26.4,8.7-47.87,26.1-64.4c17.4-16.53,36.84-24.8,58.31-24.8s40.91,8.27,58.31,24.8     C926.4,293.21,935.1,314.68,935.1,341.08L935.1,341.08z M897.59,341.08c0-26.13-4.35-45.87-13.05-59.2     c-8.7-13.33-19.98-20-33.85-20s-25.15,6.67-33.84,20c-8.7,13.33-13.05,33.07-13.05,59.2c0,25.87,4.35,45.47,13.05,58.8     c8.7,13.33,19.98,20,33.84,20s25.15-6.67,33.85-20C893.24,386.55,897.59,366.95,897.59,341.08L897.59,341.08z M1033.43,417.88     v8.4h-84.41v-8.4c9.51,0,15.9-1.07,19.17-3.2c3.26-2.13,4.89-8.13,4.89-18v-111.6c0-9.87-1.63-15.8-4.89-17.8     c-3.26-2-9.65-3-19.17-3v-8.4h59.94v33.2c3.81-7.73,10.6-15.87,20.39-24.4c9.79-8.53,21.61-12.8,35.48-12.8     c17.94,0,31.26,5.73,39.96,17.2c8.7,11.47,13.05,25.2,13.05,41.2v86.4c0,9.87,1.63,15.87,4.89,18c3.26,2.13,9.65,3.2,19.17,3.2     v8.4h-84v-8.4c9.51,0,15.9-1.07,19.17-3.2c3.26-2.13,4.89-8.13,4.89-18v-79.6c0-14.4-3.13-25.47-9.38-33.2     c-6.25-7.73-15.22-11.6-26.91-11.6c-8.43,0-15.9,2.47-22.43,7.4c-6.52,4.93-11.28,10.73-14.27,17.4v99.6c0,9.87,1.7,15.87,5.1,18     C1017.46,416.81,1023.92,417.88,1033.43,417.88L1033.43,417.88z M1307.56,430.28h-2.85l-66.47-145.2     c-4.08-8.8-7.54-14.47-10.4-17c-2.85-2.53-8.77-3.8-17.74-3.8v-8.4h86.04v8.4c-7.34,0-13.12,0.47-17.33,1.4s-6.32,3.53-6.32,7.8     c0,1.6,0.27,3.33,0.82,5.2s1.36,4.13,2.45,6.8l40.78,96l38.33-96c1.09-2.67,1.9-4.93,2.45-6.8s0.82-3.6,0.82-5.2     c0-4-1.97-6.53-5.91-7.6c-3.94-1.07-9.99-1.6-18.15-1.6v-8.4h63.61v8.4c-9.24,0-15.43,1.13-18.55,3.4     c-3.13,2.27-6.73,8.07-10.81,17.4L1307.56,430.28L1307.56,430.28z M1471.54,262.28c-11.15,0-20.73,4.2-28.75,12.6     c-8.02,8.4-13.12,20.47-15.29,36.2h78.7c-0.54-14.13-3.6-25.8-9.17-35C1491.46,266.88,1482.96,262.28,1471.54,262.28     L1471.54,262.28z M1542.49,394.68c-7.61,11.73-17.13,20.6-28.54,26.6s-23.24,9-35.48,9c-23.38,0-43.56-8.2-60.55-24.6     c-16.99-16.4-25.49-37.4-25.49-63c0-26.13,8.29-47.8,24.87-65c16.58-17.2,34.8-25.8,54.64-25.8c23.38,0,40.51,7.33,51.38,22     c10.87,14.67,16.31,30.27,16.31,46.8h-113.36v7.2c0,23.2,6.39,42.73,19.17,58.6c12.78,15.87,29.36,23.8,49.75,23.8     c8.97,0,16.99-1.67,24.06-5c7.07-3.33,13.32-8.33,18.76-15L1542.49,394.68L1542.49,394.68z M1638.78,417.88v8.4h-84.41v-8.4     c9.51,0,15.9-1.07,19.17-3.2c3.26-2.13,4.89-8.13,4.89-18v-111.6c0-9.87-1.63-15.8-4.89-17.8c-3.26-2-9.65-3-19.17-3v-8.4h59.94     v33.2c3.81-7.73,10.6-15.87,20.39-24.4c9.79-8.53,21.61-12.8,35.48-12.8c17.94,0,31.26,5.73,39.96,17.2     c8.7,11.47,13.05,25.2,13.05,41.2v86.4c0,9.87,1.63,15.87,4.89,18c3.26,2.13,9.65,3.2,19.17,3.2v8.4h-84v-8.4     c9.51,0,15.9-1.07,19.17-3.2c3.26-2.13,4.89-8.13,4.89-18v-79.6c0-14.4-3.13-25.47-9.38-33.2c-6.25-7.73-15.22-11.6-26.91-11.6     c-8.43,0-15.9,2.47-22.43,7.4c-6.52,4.93-11.28,10.73-14.27,17.4v99.6c0,9.87,1.7,15.87,5.1,18     C1622.81,416.81,1629.27,417.88,1638.78,417.88L1638.78,417.88z M1752.61,263.08c10.87-7.2,21.07-15.4,30.58-24.6     c9.51-9.2,17.53-18.33,24.06-27.4h3.26v45.6c6.52,0,16.17-0.13,28.95-0.4c12.78-0.27,22.16-0.67,28.14-1.2l-2.45,13.2h-54.64     v109.6c0,9.87,2.24,18,6.73,24.4c4.49,6.4,11.49,9.6,21,9.6c6.25,0,11.69-1.4,16.31-4.2c4.62-2.8,9.11-7.13,13.46-13l5.71,4.4     c-6.25,9.87-13.73,17.53-22.43,23c-8.7,5.47-18.89,8.2-30.58,8.2c-12.78,0-23.65-4.2-32.62-12.6     c-8.97-8.4-13.46-19.27-13.46-32.6l1.22-116.8h-23.24V263.08L1752.61,263.08z M2000.18,426.28v-30     c-3.81,7.73-10.4,15.33-19.78,22.8c-9.38,7.47-20.73,11.2-34.05,11.2c-16.85,0-29.7-5.53-38.53-16.6     c-8.83-11.07-13.25-24.6-13.25-40.6v-88c0-9.87-1.63-15.8-4.89-17.8c-3.26-2-9.65-3-19.17-3v-8.4h59.94v111.6     c0,13.6,2.85,24.33,8.56,32.2c5.71,7.87,14.41,11.8,26.1,11.8c7.61,0,14.48-2.2,20.59-6.6c6.12-4.4,10.94-10.07,14.48-17v-102.8     c0-9.87-1.7-15.8-5.1-17.8c-3.4-2-9.85-3-19.37-3v-8.4h60.35v140.8c0,9.87,1.63,15.87,4.89,18c3.26,2.13,9.65,3.2,19.17,3.2v8.4     H2000.18L2000.18,426.28z M2161.71,417.88v8.4h-92.16v-8.4c9.51,0,15.9-1.07,19.17-3.2c3.26-2.13,4.89-8.13,4.89-18v-111.6     c0-9.87-1.63-15.8-4.89-17.8c-3.26-2-9.65-3-19.17-3v-8.4h59.94v35.6c8.43-11.73,16.17-21.27,23.24-28.6     c7.07-7.33,14.41-11,22.02-11c5.98,0,11.89,2.13,17.74,6.4c5.84,4.27,10.13,8.53,12.84,12.8l-16.72,29.6h-0.82     c-3.53-6.13-7.95-11.47-13.25-16s-10.81-6.8-16.51-6.8c-4.62,0-9.11,1.8-13.46,5.4c-4.35,3.6-9.38,9-15.09,16.2v97.2     c0,9.87,2.17,15.87,6.52,18C2140.37,416.81,2148.94,417.88,2161.71,417.88L2161.71,417.88z M2288.18,262.28     c-11.15,0-20.73,4.2-28.75,12.6s-13.12,20.47-15.29,36.2h78.7c-0.54-14.13-3.6-25.8-9.17-35     C2308.09,266.88,2299.59,262.28,2288.18,262.28L2288.18,262.28z M2359.13,394.68c-7.61,11.73-17.13,20.6-28.54,26.6     c-11.42,6-23.24,9-35.48,9c-23.38,0-43.56-8.2-60.55-24.6c-16.99-16.4-25.49-37.4-25.49-63c0-26.13,8.29-47.8,24.87-65     c16.58-17.2,34.8-25.8,54.64-25.8c23.38,0,40.51,7.33,51.38,22c10.87,14.67,16.31,30.27,16.31,46.8h-113.36v7.2     c0,23.2,6.39,42.73,19.17,58.6c12.78,15.87,29.36,23.8,49.75,23.8c8.97,0,16.99-1.67,24.06-5c7.07-3.33,13.32-8.33,18.76-15     L2359.13,394.68L2359.13,394.68z M2435.03,419.48c10.06,0,18.01-2.4,23.85-7.2s8.77-11.87,8.77-21.2c0-6.93-2.24-12.4-6.73-16.4     c-4.49-4-10.53-7.87-18.15-11.6l-30.18-15.2c-9.24-4.8-17.26-10.8-24.06-18c-6.8-7.2-10.19-16.53-10.19-28     c0-14.67,5.44-26.67,16.31-36c10.87-9.33,24.06-14,39.55-14c9.24,0,17.06,1.53,23.45,4.6c6.39,3.07,11.21,4.6,14.48,4.6     c1.9,0,3.4-0.73,4.49-2.2c1.09-1.47,2.17-3.27,3.26-5.4h4.89l3.26,51.6l-6.93,0.4c-2.72-14.4-8.5-25.27-17.33-32.6     c-8.84-7.33-18.28-11-28.34-11c-9.24,0-16.45,2.53-21.61,7.6c-5.17,5.07-7.75,11.47-7.75,19.2c0,7.2,2.38,12.87,7.14,17     s10.81,8.07,18.15,11.8l27.32,13.6c10.06,5.07,18.69,11.2,25.89,18.4c7.2,7.2,10.81,16.93,10.81,29.2     c0,14.67-5.78,26.93-17.33,36.8c-11.55,9.87-25.62,14.8-42.2,14.8c-12.78,0-22.77-2.27-29.97-6.8c-7.2-4.53-12.17-6.8-14.88-6.8     c-1.9,0-3.67,1.13-5.3,3.4c-1.63,2.27-2.72,4.73-3.26,7.4h-5.71l-2.85-58.4l7.75-0.4c1.9,14.13,7.82,26.13,17.74,36     C2409.27,414.55,2421.16,419.48,2435.03,419.48L2435.03,419.48z" />
		</defs>
		<clipPath
   id="SVGID_3_">
			<use
   xlink:href="#SVGID_1_"
   style="overflow:visible;"
   id="use10" />
		</clipPath>
		<clipPath
   id="SVGID_4_"
   class="st0"
   clip-path="url(#SVGID_3_)">
			<use
   xlink:href="#SVGID_2_"
   style="overflow:visible;"
   id="use13" />
		</clipPath>
		<rect
   x="69.38"
   y="156.28"
   class="st1"
   width="2436"
   height="284"
   clip-path="url(#SVGID_4_)"
   id="rect16" />
	</g>
</g>
<text
   transform="translate(79.3787,704.3949)"
   class="st2 st3 st4"
   id="text22"
   style="font-size:240px;font-family:NHaasGroteskTXPro-55Rg;fill:#be0834"><tspan
     style="font-style:normal;font-variant:normal;font-weight:normal;font-stretch:normal;font-size:240px;font-family:'CMU Sans Serif';-inkscape-font-specification:'CMU Sans Serif, Normal';font-variant-ligatures:normal;font-variant-caps:normal;font-variant-numeric:normal;font-variant-east-asian:normal"
     id="tspan289">Internal Data Initiative</tspan></text>
</svg>
