<svg xmlns="http://www.w3.org/2000/svg" height="18" viewBox="0 0 22 91">
  <path fill="#663FB4" d="M11,90.05 C14,90.05 16.5666667,88.9833333 18.7,86.85 C20.8,84.7166667 21.85,82.1666667 21.85,79.2 C21.85,76.2 20.8,73.6333333 18.7,71.5 C16.5666667,69.3666667 14,68.3 11,68.3 C8,68.3 5.43333333,69.3666667 3.3,71.5 C1.16666667,73.6333333 0.1,76.2 0.1,79.2 C0.1,82.1666667 1.16666667,84.7166667 3.3,86.85 C5.43333333,88.9833333 8,90.05 11,90.05 L11,90.05 Z M11,34.15 C8,34.15 5.43333333,35.2 3.3,37.3 C1.16666667,39.4333333 0.1,42 0.1,45 C0.1,48 1.16666667,50.5666667 3.3,52.7 C5.43333333,54.8333333 8,55.9 11,55.9 C14,55.9 16.5666667,54.8333333 18.7,52.7 C20.8,50.5666667 21.85,48 21.85,45 C21.85,42 20.8,39.4333333 18.7,37.3 C16.5666667,35.2 14,34.15 11,34.15 L11,34.15 Z M11,21.75 C14,21.75 16.5666667,20.7 18.7,18.6 C20.8,16.4666667 21.85,13.9 21.85,10.9 C21.85,7.9 20.8,5.33333333 18.7,3.2 C16.5666667,1.06666667 14,0 11,0 C8,0 5.43333333,1.06666667 3.3,3.2 C1.16666667,5.33333333 0.1,7.9 0.1,10.9 C0.1,13.9 1.16666667,16.4666667 3.3,18.6 C5.43333333,20.7 8,21.75 11,21.75 Z"/>
</svg>
